<svg width="70" height="71" viewBox="0 0 70 71" fill="none" xmlns="http://www.w3.org/2000/svg">
<g filter="url(#filter0_d_134_392)">
<circle cx="34.8001" cy="22.6051" r="16.7999" fill="#F53838"/>
</g>
<path d="M34.8 5.80518C25.5215 5.80518 18 13.3267 18 22.6052C18 31.8837 25.5215 39.4052 34.8 39.4052C44.0785 39.4052 51.6 31.8837 51.6 22.6052C51.6 13.3267 44.0785 5.80518 34.8 5.80518ZM38.7795 17.4147H36.2543C35.955 17.4147 35.6225 17.8084 35.6225 18.3317V20.1552H38.7813L38.3035 22.7557H35.6225V30.5624H32.6423V22.7557H29.9385V20.1552H32.6423V18.6257C32.6423 16.4312 34.1648 14.6479 36.2543 14.6479H38.7795V17.4147Z" fill="white"/>
<defs>
<filter id="filter0_d_134_392" x="0.00012207" y="0.805176" width="69.5999" height="69.5999" filterUnits="userSpaceOnUse" color-interpolation-filters="sRGB">
<feFlood flood-opacity="0" result="BackgroundImageFix"/>
<feColorMatrix in="SourceAlpha" type="matrix" values="0 0 0 0 0 0 0 0 0 0 0 0 0 0 0 0 0 0 127 0" result="hardAlpha"/>
<feOffset dy="13"/>
<feGaussianBlur stdDeviation="9"/>
<feColorMatrix type="matrix" values="0 0 0 0 0.0658854 0 0 0 0 0.0730469 0 0 0 0 0.1375 0 0 0 0.08 0"/>
<feBlend mode="normal" in2="BackgroundImageFix" result="effect1_dropShadow_134_392"/>
<feBlend mode="normal" in="SourceGraphic" in2="effect1_dropShadow_134_392" result="shape"/>
</filter>
</defs>
</svg>
