<svg width="39" height="39" viewBox="0 0 39 39" fill="none" xmlns="http://www.w3.org/2000/svg">
<path d="M5.55752 1.56L22.4494 18.33L27.0806 13.6987L6.60565 1.87687C6.2644 1.67883 5.89877 1.56914 5.55752 1.56ZM4.14377 2.34C3.99143 2.61117 3.90002 2.93109 3.90002 3.29062V35.88C3.90002 36.142 3.95487 36.3766 4.04627 36.5869L21.3281 19.4269L4.14377 2.34ZM28.4944 14.5031L23.5463 19.4269L28.4944 24.3262L34.5394 20.865C35.3986 20.3684 35.5205 19.7377 35.5144 19.4025C35.5053 18.848 35.1549 18.33 34.5638 18.0131C34.0489 17.7359 30.225 15.5086 28.4944 14.5031ZM22.4494 20.5237L5.41127 37.4156C5.69463 37.4004 6.00237 37.3394 6.28877 37.1719C6.95604 36.7849 20.4506 28.9819 20.4506 28.9819L27.105 25.155L22.4494 20.5237Z" fill="white"/>
</svg>
