<svg width="364" height="453" viewBox="0 0 364 453" fill="none" xmlns="http://www.w3.org/2000/svg">
<path d="M325.171 352.662C319.979 346.473 313.217 341.934 305.661 339.564C300.41 338.024 292.45 336.621 284.345 338.68C279.435 339.889 274.917 342.422 271.243 346.023C266.907 350.28 263.597 356.15 261.404 363.469C261.243 364.011 261.187 364.58 261.241 365.144C261.295 365.708 261.457 366.255 261.717 366.753C261.977 367.251 262.33 367.689 262.756 368.042C263.181 368.396 263.67 368.657 264.194 368.81L277.963 372.846C278.908 373.119 279.916 373.03 280.803 372.595C281.69 372.159 282.397 371.406 282.796 370.473C284.622 366.155 289.231 359.335 299.585 362.17C302.211 362.837 304.573 364.339 306.341 366.469C308.109 368.599 309.196 371.25 309.45 374.053C309.691 376.426 309.392 378.826 308.576 381.056C307.76 383.287 306.451 385.286 304.755 386.891C299.391 392.108 292.391 391.095 288.695 390.027C286.656 389.435 284.476 389.707 282.628 390.783C280.781 391.859 279.417 393.652 278.834 395.771L274.664 411.203C274.372 412.287 274.505 413.447 275.034 414.429C275.562 415.411 276.443 416.134 277.483 416.44L290.898 420.373C291.938 420.677 293.052 420.539 293.995 419.988C294.938 419.438 295.632 418.52 295.926 417.437L296.802 414.195C296.813 414.157 296.834 414.123 296.864 414.099C296.893 414.074 296.93 414.06 296.968 414.058C302.84 413.644 308.555 411.898 313.712 408.943C322.381 403.915 328.262 395.869 331.191 385.03C335.384 369.516 330.231 358.866 325.171 352.662Z" fill="#E0E0E0"/>
<path d="M283.809 422.487L282.635 422.143C279.937 421.353 277.048 421.711 274.603 423.14C272.158 424.568 270.358 426.949 269.599 429.759C268.839 432.569 269.183 435.578 270.553 438.125C271.924 440.671 274.209 442.547 276.907 443.339L278.081 443.683C280.779 444.474 283.669 444.116 286.114 442.688C288.559 441.26 290.36 438.879 291.119 436.068C291.879 433.257 291.535 430.248 290.164 427.701C288.793 425.154 286.507 423.279 283.809 422.487Z" fill="#E0E0E0"/>
<path d="M354.737 267.194C351.162 265.221 347.125 264.338 343.09 264.645C339.396 264.93 335.831 266.184 332.727 268.29C330.588 269.806 328.87 271.881 327.744 274.307C326.359 277.513 325.794 281.038 326.102 284.539C326.12 284.829 326.194 285.112 326.318 285.372C326.443 285.632 326.617 285.863 326.829 286.052C327.041 286.241 327.288 286.383 327.554 286.471C327.82 286.559 328.1 286.591 328.378 286.564L335.681 285.869C336.182 285.82 336.648 285.585 336.997 285.207C337.345 284.829 337.551 284.333 337.578 283.81C337.693 281.394 338.7 277.248 344.157 276.63C345.532 276.448 346.927 276.717 348.149 277.399C349.37 278.082 350.357 279.144 350.972 280.437C351.505 281.528 351.783 282.734 351.785 283.958C351.787 285.182 351.512 286.389 350.982 287.481C349.331 291.004 345.8 291.855 343.843 292.048C342.763 292.154 341.766 292.7 341.071 293.568C340.375 294.436 340.038 295.555 340.131 296.681L340.849 304.867C340.9 305.442 341.168 305.972 341.594 306.341C342.019 306.71 342.569 306.889 343.12 306.837L350.236 306.16C350.788 306.107 351.297 305.828 351.652 305.384C352.006 304.941 352.178 304.369 352.128 303.794L351.977 302.074C351.975 302.054 351.98 302.034 351.989 302.016C351.999 301.999 352.014 301.985 352.032 301.977C354.771 300.658 357.201 298.731 359.151 296.332C360.776 294.293 361.983 291.929 362.699 289.386C363.415 286.843 363.624 284.175 363.314 281.545C362.592 273.316 358.251 269.199 354.737 267.194Z" fill="#F5F5F5"/>
<path d="M347.213 308.525L346.591 308.584C345.16 308.721 343.84 309.445 342.921 310.595C342.002 311.745 341.559 313.229 341.69 314.719C341.82 316.209 342.514 317.585 343.618 318.543C344.722 319.501 346.146 319.963 347.577 319.828L348.199 319.768C349.63 319.632 350.95 318.909 351.87 317.758C352.789 316.608 353.232 315.124 353.101 313.634C352.97 312.143 352.277 310.768 351.173 309.81C350.069 308.852 348.644 308.39 347.213 308.525Z" fill="#F5F5F5"/>
<path d="M62.2572 92.4333C59.8205 90.0012 56.775 88.3335 53.4699 87.6215C50.4431 86.973 47.3081 87.1323 44.3563 88.0846C42.3084 88.7932 40.4753 90.0501 39.0409 91.7292C37.2278 93.9731 36.0021 96.6669 35.4827 99.5494C35.4337 99.7864 35.4308 100.031 35.4742 100.269C35.5176 100.507 35.6063 100.734 35.7352 100.936C35.8641 101.138 36.0306 101.311 36.2247 101.444C36.4188 101.578 36.6367 101.67 36.8654 101.715L42.8779 102.892C43.2904 102.971 43.7165 102.893 44.0786 102.673C44.4407 102.452 44.7148 102.104 44.851 101.691C45.2321 100.192 46.1654 98.911 47.448 98.1249C48.7307 97.3388 50.2593 97.1113 51.702 97.492C52.8451 97.6724 53.9057 98.2195 54.7364 99.0572C55.567 99.8949 56.1262 100.981 56.3362 102.166C56.5252 103.167 56.4848 104.201 56.2182 105.184C55.9517 106.166 55.4665 107.069 54.8021 107.82C52.7062 110.254 49.6872 110.098 48.0741 109.789C47.184 109.617 46.2648 109.819 45.5169 110.35C44.769 110.881 44.253 111.699 44.0815 112.625L42.865 119.363C42.7801 119.836 42.8789 120.325 43.1398 120.723C43.4006 121.12 43.8022 121.394 44.2564 121.483L50.1144 122.631C50.5687 122.719 51.0382 122.616 51.4199 122.344C51.8015 122.073 52.0641 121.655 52.15 121.181L52.4056 119.766C52.4086 119.749 52.4165 119.734 52.4282 119.722C52.4399 119.711 52.4549 119.703 52.4709 119.701C54.9578 119.293 57.3292 118.324 59.4191 116.862C61.1695 115.612 62.656 114.002 63.7872 112.132C64.9185 110.262 65.6706 108.17 65.9973 105.986C67.2202 99.2114 64.6384 94.8768 62.2572 92.4333Z" fill="#F5F5F5"/>
<path d="M47.1708 123.811L46.6583 123.71C46.0748 123.596 45.4754 123.602 44.8944 123.729C44.3133 123.856 43.762 124.101 43.2719 124.45C42.7817 124.799 42.3624 125.245 42.0377 125.763C41.7131 126.281 41.4895 126.86 41.3798 127.468C41.2701 128.076 41.2764 128.7 41.3984 129.305C41.5203 129.91 41.7555 130.484 42.0905 130.995C42.4255 131.506 42.8538 131.942 43.3509 132.28C43.8479 132.619 44.4041 132.851 44.9876 132.966L45.5001 133.066C46.0835 133.18 46.6829 133.174 47.2639 133.047C47.845 132.92 48.3963 132.675 48.8864 132.326C49.3766 131.977 49.796 131.531 50.1206 131.013C50.4452 130.495 50.6688 129.916 50.7785 129.308C50.8882 128.701 50.8819 128.076 50.7599 127.471C50.638 126.866 50.4028 126.292 50.0678 125.781C49.7328 125.271 49.3045 124.834 48.8075 124.496C48.3104 124.158 47.7542 123.925 47.1708 123.811Z" fill="#F5F5F5"/>
<path d="M343.857 94.5854C340.289 92.5979 336.256 91.6978 332.22 91.9883C328.524 92.2584 324.955 93.4976 321.843 95.5904C319.698 97.0977 317.972 99.1656 316.837 101.587C315.44 104.788 314.861 108.31 315.156 111.812C315.173 112.102 315.245 112.386 315.369 112.646C315.493 112.907 315.666 113.138 315.878 113.328C316.089 113.518 316.335 113.661 316.6 113.75C316.866 113.839 317.146 113.872 317.424 113.846L324.73 113.182C325.231 113.134 325.699 112.901 326.048 112.525C326.398 112.148 326.606 111.654 326.635 111.131C326.759 108.715 327.782 104.574 333.241 103.978C334.617 103.802 336.011 104.076 337.23 104.764C338.449 105.451 339.431 106.517 340.041 107.813C340.57 108.906 340.844 110.114 340.841 111.337C340.838 112.561 340.559 113.767 340.024 114.857C338.36 118.373 334.827 119.209 332.868 119.395C331.788 119.496 330.789 120.038 330.09 120.903C329.392 121.768 329.05 122.886 329.139 124.012L329.826 132.201C329.874 132.776 330.14 133.307 330.565 133.678C330.989 134.049 331.537 134.23 332.09 134.18L339.208 133.533C339.76 133.482 340.27 133.205 340.626 132.763C340.983 132.321 341.156 131.75 341.108 131.175L340.964 129.454C340.962 129.434 340.967 129.414 340.977 129.397C340.987 129.379 341.002 129.366 341.019 129.358C343.764 128.05 346.201 126.133 348.16 123.742C349.793 121.709 351.009 119.351 351.735 116.811C352.46 114.271 352.68 111.603 352.379 108.972C351.689 100.74 347.364 96.6047 343.857 94.5854Z" fill="#EBEBEB"/>
<path d="M336.176 135.886L335.553 135.942C334.121 136.072 332.798 136.79 331.873 137.937C330.949 139.083 330.5 140.565 330.625 142.057C330.751 143.548 331.439 144.927 332.54 145.889C333.641 146.852 335.064 147.319 336.496 147.189L337.119 147.133C338.551 147.002 339.874 146.285 340.798 145.138C341.723 143.992 342.171 142.509 342.046 141.018C341.921 139.527 341.233 138.148 340.132 137.185C339.031 136.223 337.608 135.755 336.176 135.886Z" fill="#EBEBEB"/>
<path d="M124.196 342.042C119.736 339.932 114.795 339.174 109.941 339.855C105.496 340.484 101.277 342.273 97.6747 345.056C95.1976 347.052 93.268 349.691 92.0792 352.71C90.6327 356.691 90.1984 360.994 90.8182 365.201C90.8606 365.55 90.9697 365.887 91.1391 366.191C91.3085 366.495 91.5348 366.761 91.8045 366.973C92.0742 367.185 92.382 367.338 92.7095 367.424C93.0371 367.51 93.3779 367.527 93.7117 367.473L102.489 366.073C103.09 365.975 103.638 365.655 104.032 365.172C104.426 364.688 104.64 364.074 104.636 363.439C104.603 360.511 105.527 355.423 112.078 354.257C113.727 353.932 115.432 354.15 116.956 354.88C118.481 355.611 119.748 356.819 120.583 358.335C121.304 359.613 121.726 361.049 121.815 362.528C121.904 364.006 121.656 365.486 121.093 366.847C119.347 371.23 115.141 372.53 112.789 372.914C111.491 373.125 110.326 373.861 109.547 374.964C108.768 376.066 108.439 377.444 108.632 378.797L110.078 388.635C110.18 389.325 110.542 389.945 111.082 390.359C111.623 390.773 112.299 390.946 112.963 390.841L121.514 389.477C122.177 389.37 122.772 388.994 123.17 388.431C123.567 387.868 123.733 387.163 123.632 386.473L123.328 384.406C123.325 384.382 123.329 384.357 123.339 384.335C123.35 384.313 123.367 384.296 123.388 384.284C126.605 382.48 129.405 379.965 131.592 376.916C133.411 374.327 134.703 371.378 135.389 368.25C136.074 365.122 136.138 361.881 135.576 358.726C134.122 348.837 128.585 344.195 124.196 342.042Z" fill="#EBEBEB"/>
<path d="M118.028 392.567L117.28 392.687C115.56 392.961 114.015 393.936 112.985 395.397C111.955 396.858 111.524 398.685 111.787 400.477C112.051 402.269 112.987 403.878 114.39 404.951C115.792 406.024 117.547 406.472 119.267 406.198L120.015 406.079C121.735 405.804 123.28 404.829 124.31 403.368C125.34 401.907 125.771 400.08 125.508 398.288C125.244 396.497 124.308 394.887 122.906 393.814C121.503 392.742 119.748 392.293 118.028 392.567Z" fill="#EBEBEB"/>
<path d="M47.2334 155.892C40.9621 152.94 34.019 151.888 27.2 152.857C22.4984 153.616 15.6942 155.505 9.97927 160.195C6.50389 163.007 3.79912 166.72 2.13616 170.963C0.113512 176.56 -0.486375 182.607 0.394648 188.517C0.455039 189.007 0.609149 189.48 0.847872 189.907C1.08659 190.334 1.40509 190.707 1.78455 191.004C2.16401 191.301 2.59674 191.516 3.05718 191.635C3.51762 191.755 3.99644 191.778 4.46536 191.701L16.7933 189.711C17.6381 189.572 18.4066 189.121 18.9591 188.441C19.5115 187.761 19.8112 186.897 19.8035 186.006C19.751 181.891 21.0367 174.741 30.2378 173.086C32.5533 172.624 34.9495 172.926 37.0928 173.949C39.2361 174.972 41.0199 176.665 42.196 178.793C43.2126 180.586 43.8092 182.602 43.9374 184.68C44.0656 186.757 43.7217 188.837 42.9337 190.75C40.4914 196.913 34.5851 198.75 31.2817 199.296C29.4583 199.595 27.8225 200.633 26.7309 202.184C25.6393 203.734 25.1805 205.671 25.4544 207.573L27.5102 221.39C27.6556 222.36 28.1645 223.23 28.9252 223.81C29.6859 224.39 30.6363 224.631 31.568 224.482L43.5793 222.543C44.5106 222.392 45.3462 221.862 45.9028 221.069C46.4594 220.277 46.6915 219.287 46.5482 218.317L46.1163 215.414C46.1112 215.38 46.1166 215.345 46.1316 215.314C46.1465 215.284 46.1704 215.259 46.1998 215.243C50.7153 212.699 54.6429 209.159 57.7078 204.869C62.8377 197.611 64.7067 189.009 63.2626 179.303C61.1959 165.413 53.4051 158.905 47.2334 155.892Z" fill="#EBEBEB"/>
<path d="M38.6893 226.894L37.6385 227.064C35.2223 227.454 33.0539 228.828 31.6102 230.883C30.1665 232.938 29.5658 235.507 29.9402 238.023C30.3147 240.54 31.6336 242.799 33.6068 244.302C35.5801 245.806 38.046 246.432 40.4622 246.042L41.513 245.872C43.9292 245.482 46.0976 244.108 47.5413 242.053C48.985 239.998 49.5857 237.429 49.2113 234.913C48.8368 232.396 47.5179 230.138 45.5447 228.634C43.5714 227.13 41.1055 226.504 38.6893 226.894Z" fill="#EBEBEB"/>
<path d="M217.233 64.5685L226.372 66.0913C232.032 72.8567 240.019 77.2601 248.761 78.436C257.503 79.612 266.369 77.4754 273.616 72.4463C280.863 67.4171 285.967 59.8592 287.924 51.2581C289.882 42.657 288.551 33.6348 284.194 25.9649C279.837 18.295 272.769 12.5322 264.379 9.80917C255.988 7.08617 246.883 7.59995 238.852 11.2495C230.822 14.8991 224.447 21.4204 220.98 29.5318C217.514 37.6431 217.206 46.7577 220.119 55.0841L220.108 55.0676L217.233 64.5685Z" fill="white"/>
<path d="M217.233 64.5684C217.233 64.5684 217.28 64.3697 217.395 63.9641L217.919 62.1475C218.399 60.5112 219.099 58.1238 220.005 55.0367L220.068 54.8232L220.196 55.0069L220.207 55.0231L220.018 55.1195C218.08 49.6885 217.508 43.8641 218.352 38.1598C218.919 34.424 220.066 30.7996 221.752 27.4179C223.695 23.5783 226.322 20.1248 229.503 17.2266C233.04 14.0393 237.17 11.5812 241.659 9.99337C246.513 8.23929 251.697 7.59 256.833 8.09281C262.297 8.64766 267.564 10.4353 272.237 13.3211C277.14 16.359 281.21 20.5691 284.08 25.5719C285.559 28.1062 286.727 30.8098 287.557 33.624C287.759 34.3202 287.89 35.0344 288.059 35.7359C288.24 36.4326 288.383 37.1386 288.487 37.8508C288.573 38.5636 288.66 39.2744 288.745 39.9831L288.868 41.045L288.886 42.111C289.065 47.6572 287.967 53.1703 285.676 58.2242C283.51 62.9632 280.303 67.1522 276.293 70.4788C272.618 73.5662 268.366 75.893 263.785 77.3241C259.645 78.5964 255.308 79.1024 250.987 78.8171L248.011 78.4701C247.04 78.3336 246.105 78.0767 245.177 77.8912C243.4 77.4857 241.661 76.9289 239.979 76.2271C234.661 74.0416 229.961 70.5841 226.292 66.1582L226.355 66.194C223.411 65.6767 221.124 65.2748 219.551 64.9985C218.799 64.8625 218.22 64.7581 217.809 64.6836C217.42 64.6118 217.233 64.5684 217.233 64.5684C217.233 64.5684 217.451 64.5924 217.854 64.6525L219.629 64.9237C221.191 65.1698 223.464 65.5278 226.389 65.9885L226.426 65.9944L226.452 66.0245C230.135 70.3786 234.821 73.7726 240.106 75.9145C241.776 76.6004 243.501 77.1427 245.263 77.5355C246.182 77.7143 247.107 77.9647 248.069 78.0953L251.013 78.4258C255.285 78.6901 259.568 78.1748 263.655 76.905C268.174 75.4782 272.365 73.17 275.986 70.114C279.933 66.8256 283.089 62.6897 285.217 58.0138C287.468 53.0299 288.544 47.596 288.364 42.1305L288.346 41.0803L288.224 40.0342C288.14 39.336 288.055 38.6359 287.969 37.9337C287.866 37.232 287.725 36.5365 287.546 35.8503C287.379 35.1593 287.25 34.4556 287.051 33.7698C286.232 30.9975 285.081 28.3342 283.624 25.8374C280.796 20.9087 276.788 16.76 271.96 13.7641C267.357 10.9174 262.169 9.15041 256.785 8.59561C251.721 8.09265 246.608 8.72394 241.818 10.4436C237.384 12.0016 233.3 14.4174 229.799 17.5532C226.647 20.4074 224.04 23.8103 222.104 27.5962C220.423 30.936 219.271 34.517 218.69 38.2108C217.825 43.8643 218.35 49.6435 220.22 55.0484L220.477 55.8L220.031 55.1448L220.02 55.1284L220.21 55.0987C219.261 58.1424 218.527 60.4963 218.023 62.1096C217.773 62.9005 217.581 63.5067 217.445 63.9367C217.312 64.3497 217.233 64.5684 217.233 64.5684Z" fill="black"/>
<path d="M260.881 27.1551C258.49 25.6179 255.715 24.7856 252.873 24.7535C250.271 24.7269 247.705 25.3587 245.412 26.5902C243.829 27.4826 242.509 28.7755 241.583 30.3392C240.432 32.4121 239.836 34.7472 239.853 37.1183C239.849 37.3142 239.885 37.5089 239.957 37.6909C240.03 37.8729 240.138 38.0385 240.276 38.1779C240.414 38.3172 240.578 38.4276 240.759 38.5024C240.941 38.5772 241.135 38.615 241.331 38.6135L246.482 38.5785C246.836 38.5748 247.176 38.4444 247.441 38.211C247.706 37.9777 247.879 37.6569 247.927 37.3071C248.01 36.0566 248.583 34.8894 249.522 34.0589C250.46 33.2283 251.688 32.8014 252.94 32.8708C253.912 32.8297 254.874 33.0929 255.69 33.6237C256.506 34.1545 257.136 34.9265 257.493 35.8323C257.804 36.5968 257.931 37.4238 257.863 38.2464C257.795 39.0689 257.533 39.8638 257.1 40.5665C256.526 41.422 255.74 42.115 254.819 42.5786C253.899 43.0422 252.874 43.2609 251.845 43.2134C251.082 43.2206 250.354 43.5288 249.818 44.0709C249.282 44.613 248.982 45.345 248.984 46.1072L249.021 51.6506C249.024 52.0398 249.182 52.412 249.459 52.6853C249.736 52.9587 250.11 53.111 250.499 53.1088L255.519 53.0746C255.908 53.0716 256.28 52.9142 256.553 52.6371C256.827 52.36 256.979 51.9858 256.977 51.5966L256.969 50.4319C256.969 50.4183 256.973 50.405 256.981 50.3939C256.989 50.3827 257 50.3744 257.013 50.37C259.005 49.6454 260.815 48.4943 262.316 46.9973C263.569 45.7231 264.549 44.2061 265.194 42.5395C265.84 40.8729 266.137 39.092 266.069 37.3061C266.15 35.3107 265.715 33.3282 264.806 31.55C263.897 29.7719 262.545 28.2581 260.881 27.1551Z" fill="url(#paint0_linear_123_121)"/>
<path d="M253.268 54.4854L252.829 54.4884C251.821 54.4966 250.856 54.9049 250.148 55.6235C249.44 56.3421 249.047 57.3124 249.053 58.3211C249.06 59.3299 249.467 60.2947 250.185 61.0036C250.903 61.7125 251.872 62.1077 252.881 62.1022L253.32 62.0992C254.33 62.0923 255.295 61.6846 256.004 60.9659C256.713 60.2471 257.108 59.2761 257.101 58.2664C257.094 57.2568 256.687 56.2912 255.968 55.5821C255.249 54.8731 254.278 54.4786 253.268 54.4854Z" fill="url(#paint1_linear_123_121)"/>
<path d="M271.728 116.785C247.384 99.7308 218.44 93.6545 199.471 93.6545C181.705 93.6545 155.561 96.5727 131.898 110.475C117.53 118.779 105.511 130.87 97.0453 145.538C87.06 162.868 81.6553 184.311 80.9818 209.273C80.9356 211.118 81.2448 212.954 81.8913 214.672C82.5377 216.391 83.5082 217.957 84.7454 219.278C85.9826 220.6 87.4615 221.65 89.0947 222.366C90.728 223.082 92.4824 223.45 94.2544 223.448H140.837C144.03 223.436 147.114 222.23 149.526 220.049C151.938 217.869 153.518 214.859 153.979 211.567C156.045 196.352 164.715 170.734 199.574 170.108C226.13 169.633 237.088 189.657 240.566 198.29C246.228 212.338 244.792 228.996 236.724 242.851C224.329 264.137 201.526 267.395 189.037 267.443C182.144 267.462 175.538 270.318 170.659 275.389C165.78 280.46 163.023 287.335 162.99 294.514V346.723C162.994 350.389 164.394 353.904 166.883 356.496C169.372 359.089 172.746 360.547 176.266 360.551H221.651C225.171 360.547 228.546 359.089 231.035 356.496C233.523 353.904 234.923 350.389 234.927 346.723V335.754C234.927 335.626 234.966 335.501 235.038 335.397C235.11 335.293 235.212 335.215 235.329 335.174C253.388 328.477 269.824 317.752 283.489 303.749C306.403 280.02 318.022 249.392 318.022 212.718C318.022 160.233 292.847 131.58 271.728 116.785Z" fill="#DB2542"/>
<path d="M197.817 384.906H201.48C205.776 384.9 210.031 385.777 214.002 387.485C217.973 389.194 221.581 391.701 224.621 394.863C227.66 398.025 230.072 401.78 231.717 405.914C233.363 410.047 234.209 414.478 234.209 418.953C234.209 423.428 233.363 427.859 231.717 431.992C230.072 436.126 227.66 439.881 224.621 443.043C221.581 446.205 217.973 448.712 214.002 450.421C210.031 452.129 205.776 453.006 201.48 453H197.817C193.521 453.006 189.266 452.129 185.295 450.421C181.324 448.712 177.716 446.205 174.676 443.043C171.636 439.881 169.225 436.126 167.58 431.992C165.934 427.859 165.088 423.428 165.088 418.953C165.088 414.478 165.934 410.047 167.58 405.914C169.225 401.78 171.636 398.025 174.676 394.863C177.716 391.701 181.324 389.194 185.295 387.485C189.266 385.777 193.521 384.9 197.817 384.906Z" fill="#263238"/>
<path d="M176.092 370.648H221.458C224.921 370.7 228.263 369.32 230.751 366.81C233.238 364.3 234.669 360.866 234.729 357.259V335.914C234.73 335.788 234.769 335.666 234.842 335.565C234.914 335.464 235.015 335.39 235.13 335.352C242.602 332.562 249.762 328.936 256.484 324.538C227.498 324.327 174.664 324.018 162.822 324.468V357.259C162.881 360.866 164.312 364.3 166.8 366.81C169.287 369.32 172.629 370.7 176.092 370.648Z" fill="#263238"/>
<path d="M213.457 134.132L184.344 46.0728C178.196 24.0245 160.752 9.37351 139.762 16.3854L137.858 17.1509C128.62 20.8664 121.064 28.0684 116.693 37.3239C112.322 46.5793 111.457 57.2096 114.271 67.0991C119.701 86.1788 125.937 107.187 129.736 117.066C137.603 137.518 158.197 131.777 158.197 131.777C158.242 131.762 162.78 145.41 164.766 151.535L175.428 162.509L179.832 157.497L213.457 134.132Z" fill="#FFBF9D"/>
<path d="M158.197 131.778C158.197 131.778 170.915 127.533 180.952 113.53C180.952 113.53 180.502 131.466 160.129 137.538L158.197 131.778Z" fill="#FF9A6C"/>
<path d="M128.514 81.005C128.791 81.7729 129.344 82.3979 130.057 82.7468C130.77 83.0956 131.585 83.1408 132.329 82.8726C132.699 82.758 133.042 82.5676 133.34 82.3125C133.638 82.0574 133.883 81.7429 134.062 81.3874C134.242 81.0319 134.351 80.6427 134.383 80.2426C134.416 79.8425 134.371 79.4398 134.252 79.058C133.975 78.2903 133.422 77.6652 132.71 77.3157C131.998 76.9662 131.183 76.92 130.439 77.1869C130.069 77.3015 129.725 77.4921 129.427 77.7474C129.129 78.0026 128.883 78.3175 128.704 78.6733C128.525 79.0291 128.415 79.4187 128.383 79.8191C128.35 80.2196 128.395 80.6228 128.514 81.005Z" fill="#263238"/>
<path d="M121.507 73.4907C121.998 73.7328 123.522 71.2285 126.558 70.0168C129.573 68.7606 132.401 69.4901 132.586 68.9711C132.684 68.7353 132.072 68.1871 130.83 67.842C129.167 67.4226 127.42 67.5498 125.829 68.2061C124.25 68.8347 122.904 69.9705 121.986 71.449C121.331 72.5693 121.271 73.3884 121.507 73.4907Z" fill="#263238"/>
<path d="M153.865 70.5355C154.357 70.7774 155.884 68.2729 158.917 67.0616C161.931 65.8066 164.759 66.5353 164.945 66.0158C165.042 65.78 164.434 65.2314 163.189 64.888C161.526 64.4683 159.779 64.595 158.188 65.2507C156.609 65.8801 155.263 67.0157 154.344 68.4936C153.691 69.6137 153.631 70.4336 153.865 70.5355Z" fill="#263238"/>
<path d="M149.624 90.9055C149.571 90.7202 147.561 91.1393 144.356 91.9615C143.551 92.1903 142.759 92.3252 142.425 91.8268C142.05 91.0201 141.921 90.1136 142.055 89.2285C142.059 86.9841 142.062 84.6302 142.066 82.1667C142.003 72.1442 141.639 64.03 141.251 64.0355C140.863 64.0425 140.6 72.1704 140.664 82.1923C140.698 84.6567 140.729 87.0056 140.762 89.2522C140.636 90.4211 140.909 91.5989 141.534 92.5789C141.752 92.818 142.019 93.0023 142.315 93.1178C142.611 93.2333 142.929 93.277 143.244 93.2455C143.718 93.1941 144.184 93.0803 144.63 92.9069C147.767 91.8424 149.679 91.0897 149.624 90.9055Z" fill="#263238"/>
<path d="M146.854 52.7798C147.565 53.4201 150.193 51.3885 153.744 49.8673C157.268 48.2709 160.497 47.7216 160.551 46.7447C160.563 46.2847 159.689 45.8017 158.186 45.6566C156.226 45.5474 154.267 45.9047 152.459 46.7013C150.651 47.498 149.041 48.7131 147.751 50.2545C146.804 51.4791 146.528 52.4689 146.854 52.7798Z" fill="#263238"/>
<path d="M117.924 64.2618C118.813 64.7388 121.031 63.0351 124.004 61.8516C126.942 60.5773 129.688 60.216 130.003 59.2373C130.128 58.7736 129.474 58.2037 128.127 57.9457C126.304 57.6799 124.446 57.9308 122.748 58.6722C121.034 59.3469 119.529 60.4953 118.395 61.994C117.603 63.1408 117.52 64.0171 117.924 64.2618Z" fill="#263238"/>
<path d="M188.052 60.9423C188.332 60.6554 200.06 51.3108 204.84 65.5332C209.62 79.7559 194.925 81.8211 194.764 81.4217C194.604 81.0227 188.052 60.9423 188.052 60.9423Z" fill="#FFBF9D"/>
<path d="M197.125 74.5126C197.169 74.4453 197.421 74.599 197.887 74.6447C198.538 74.69 199.18 74.4711 199.678 74.0341C200.935 72.957 201.348 70.1285 200.553 67.5405C200.178 66.3087 199.543 65.1798 198.695 64.2363C198.418 63.8387 198.052 63.5173 197.629 63.2996C197.205 63.082 196.738 62.9747 196.266 62.9868C195.968 63.0112 195.687 63.1437 195.472 63.3613C195.257 63.5789 195.122 63.8679 195.091 64.1782C195.041 64.6423 195.224 64.8946 195.159 64.9458C195.133 64.995 194.786 64.8138 194.699 64.1867C194.656 63.8067 194.74 63.423 194.937 63.0996C195.213 62.6667 195.641 62.3643 196.13 62.2577C196.729 62.169 197.341 62.2418 197.906 62.4691C198.471 62.6965 198.97 63.0709 199.356 63.5565C200.352 64.5762 201.092 65.834 201.513 67.2201C202.389 70.118 201.882 73.3137 200.108 74.6274C199.779 74.8722 199.401 75.0368 199.002 75.109C198.604 75.1812 198.195 75.1591 197.806 75.0445C197.265 74.8472 197.086 74.5559 197.125 74.5126Z" fill="#FF9A6C"/>
<path d="M159.93 89.4721C159.449 89.6081 160.497 92.8916 158.548 96.1605C156.607 99.4356 153.13 100.237 153.253 100.705C153.275 100.926 154.205 101.081 155.636 100.628C157.49 100.011 159.077 98.7342 160.116 97.0204C161.112 95.3734 161.455 93.3878 161.072 91.4825C160.752 90.0685 160.139 89.3779 159.93 89.4721Z" fill="#263238"/>
<path d="M80.1764 57.1123C80.1362 56.1877 80.4421 55.2829 81.0296 54.5885C82.2679 53.0533 84.1114 52.5202 85.8417 51.8526C90.1564 50.1666 94.0476 47.4831 97.2224 44.004C95.6378 43.8132 94.0923 43.362 92.6434 42.6673C89.6625 41.185 87.2077 38.1412 87.1789 34.7011C87.1441 34.3798 87.1811 34.0545 87.287 33.7506C87.3929 33.4467 87.5649 33.1724 87.7895 32.9492C88.5801 32.3404 89.6625 32.9624 90.5238 33.455C93.3558 35.0744 95.5767 35.4006 98.5003 33.9693C100.283 33.1821 101.872 31.985 103.147 30.4675C103.184 30.3819 103.213 30.2917 103.251 30.2064C103.703 29.1835 104.149 28.2006 104.593 27.2453L104.595 27.2369L104.595 27.2418C107.934 20.0547 111.106 14.7598 115.006 11.1862C120.724 5.94744 131.482 0.726651 139.071 0.0754456C146.66 -0.575459 154.883 3.00481 158.356 10.0628C161.091 5.20292 166.95 3.08549 172.366 3.33078L172.467 3.23286C178.414 3.25541 183.383 7.96832 186.841 13.0085C187.03 13.2842 187.209 13.5682 187.394 13.8474C190.178 16.1651 193.456 17.751 196.952 18.4713C197.567 18.5934 198.281 18.7581 198.55 19.3475C198.636 19.6586 198.643 19.9874 198.571 20.3022C198.499 20.617 198.35 20.9072 198.139 21.1448C197.181 22.553 195.934 23.7213 194.489 24.5651C195.418 25.73 196.441 26.8088 197.549 27.7895C198.502 28.6227 199.636 29.6227 199.486 30.9083C199.383 31.3992 199.139 31.8458 198.786 32.188C198.433 32.5302 197.988 32.7517 197.511 32.8228C196.553 32.9449 195.582 32.8575 194.659 32.5661C195.746 33.8193 196.832 35.0727 197.918 36.3264C196.112 37.3658 194.098 37.9513 192.036 38.0363C192.689 43.697 195.133 53.7265 195.039 57.7598C191.439 59.155 190.421 59.0675 188.807 60.3699C186.721 62.0534 189.096 66.0794 185.602 65.9702C183.823 65.9142 179.33 60.6165 178.244 59.1484C171.023 49.3587 165.909 38.0651 163.249 26.0345C160.229 24.4045 156.936 23.3944 153.549 23.0591L153.86 23.1941C147.599 23.2235 140.616 23.5539 136.245 28.2249C132.855 31.8484 131.942 37.172 130.07 41.8403C126.522 50.6875 121.147 56.687 112.605 60.2591C113.945 66.8208 117.185 77.1671 118.871 83.1303L110.106 73.1722L110.119 73.221C109.499 72.6767 108.944 72.1019 108.4 71.522L108.223 71.3507L108.214 71.3242C107.357 70.3599 106.453 69.4418 105.506 68.5735L105.469 68.6434C103.37 72.5597 97.4346 69.9278 98.6827 65.6347C98.9284 64.7808 99.2982 63.9712 99.7795 63.234C99.3248 64.1801 98.643 64.9878 97.8002 65.5785C96.9575 66.1693 95.9825 66.5231 94.9698 66.6057C93.9549 66.6503 92.9542 66.3455 92.1224 65.7383C91.2906 65.1312 90.674 64.2555 90.3679 63.2467C90.2154 62.5464 90.2425 61.8167 90.4464 61.1307C90.6504 60.4447 91.024 59.8267 91.5298 59.3388C89.1218 60.4509 86.4504 60.7915 83.8559 60.3172C82.1673 59.9978 80.3226 59.1292 80.1764 57.1123Z" fill="#263238"/>
<path d="M130.43 198.054C130.251 198.107 132.589 210.298 134.878 222.943H135.601C133.312 210.298 130.609 198 130.43 198.054Z" fill="#263238"/>
<path d="M140.307 223.554C146.924 223.554 153.015 218.589 153.941 211.826C156.02 196.633 164.343 170.917 199.433 170.291C226.164 169.817 237.414 189.524 240.566 198.29C245.57 212.204 244.949 229.093 236.828 242.928C224.35 264.183 201.397 267.437 188.826 267.485C181.915 267.475 175.281 270.311 170.37 275.375C165.459 280.438 162.668 287.319 162.607 294.516V351.284L235.019 349.866V335.696C235.019 335.568 235.058 335.443 235.131 335.339C235.203 335.235 235.305 335.157 235.423 335.117C249.436 330.04 262.482 322.432 273.963 312.641L269.249 247.264C269.249 247.264 283.03 219.677 282.347 213.471C276.108 156.767 257.592 124.681 250.067 121.689C241.618 118.33 208.997 119.966 208.997 119.966C208.997 119.966 194.908 147.155 175.143 150.167C164.144 151.843 160.129 137.538 160.129 137.538L134.583 153.138C116.401 162.691 112.872 199.855 112.538 223.554H140.307Z" fill="#455A64"/>
<g opacity="0.3">
<path d="M224.224 256.956C238.82 260.826 253.21 265.722 267.806 269.592C268.918 269.768 269.953 270.291 270.773 271.091C271.848 272.388 271.606 274.355 271.125 275.992C269.432 281.201 266.391 285.821 262.336 289.343C259.16 292.249 255.356 294.7 251.141 295.043C246.448 295.424 241.936 293.157 237.968 290.52C227.677 283.644 219.312 274.059 213.719 262.736C213.719 262.736 217.142 261.269 219.76 259.811C221.298 258.947 222.788 257.993 224.224 256.956Z" fill="black"/>
</g>
<path d="M240.268 198.683C246.104 212.711 244.624 229.344 236.307 243.179C232.157 250.212 226.336 256.012 219.405 260.017C225.68 267.355 232.664 274.001 240.244 279.851C247.7 285.362 264.882 283.795 271.397 271.731C279.435 256.847 280.107 218.823 280.107 218.823L281.633 195.901L236.684 188.729L236.323 190.013C237.9 192.766 239.221 195.669 240.268 198.683Z" fill="#FFBF9D"/>
<path d="M161.998 189.05L159.439 193.252C157.494 194.65 155.642 193.882 154.44 191.285L126.77 147.418L133.511 142.952L164.072 185.02C164.072 185.02 164.502 187.25 161.998 189.05Z" fill="#455A64"/>
<path d="M98.0709 146.666C93.849 144.176 90.2515 140.683 87.5714 136.471C84.8912 132.259 83.2042 127.448 82.6479 122.428C82.0916 117.408 82.6816 112.323 84.3699 107.585C86.0582 102.848 88.7971 98.5936 92.3633 95.1678C95.9296 91.7421 100.222 89.2423 104.892 87.8721C109.562 86.5019 114.476 86.3 119.235 87.2829C123.993 88.2659 128.462 90.4058 132.276 93.5283C136.09 96.6509 139.142 100.668 141.184 105.252C143.931 111.415 144.728 118.327 143.461 124.992C142.193 131.658 138.926 137.732 134.131 142.338C129.335 146.945 123.259 149.846 116.778 150.624C110.297 151.402 103.747 150.016 98.0709 146.666ZM127.396 92.7147C121.436 89.2066 114.469 88.0314 107.75 89.4012C101.032 90.7709 95.0047 94.5954 90.7546 100.185C86.5046 105.775 84.3115 112.762 84.5709 119.888C84.8303 127.013 87.5249 133.807 92.1692 139.046C96.8134 144.284 103.102 147.623 109.9 148.458C116.699 149.294 123.56 147.573 129.248 143.605C134.936 139.637 139.076 133.683 140.921 126.817C142.766 119.95 142.195 112.623 139.312 106.156C136.785 100.489 132.618 95.7892 127.396 92.7147Z" fill="#263238"/>
<path d="M99.3828 145.32C95.1609 142.83 91.5634 139.337 88.8832 135.125C86.2031 130.914 84.5161 126.102 83.9598 121.082C83.4034 116.062 83.9934 110.977 85.6817 106.24C87.37 101.502 90.1089 97.2476 93.6752 93.8219C97.2414 90.3961 101.534 87.8963 106.204 86.5261C110.873 85.1559 115.788 84.9541 120.546 85.937C125.305 86.9199 129.774 89.0598 133.588 92.1824C137.402 95.305 140.454 99.3219 142.495 103.906C145.243 110.069 146.04 116.981 144.773 123.646C143.505 130.312 140.238 136.386 135.442 140.992C130.647 145.599 124.571 148.5 118.09 149.278C111.609 150.056 105.058 148.67 99.3828 145.32ZM128.708 91.3687C122.748 87.8605 115.781 86.6854 109.062 88.0552C102.344 89.4249 96.3164 93.2494 92.0663 98.8393C87.8163 104.429 85.6232 111.416 85.8826 118.542C86.1419 125.667 88.8366 132.461 93.4809 137.7C98.1251 142.939 104.413 146.277 111.212 147.113C118.011 147.949 124.872 146.228 130.56 142.259C136.248 138.291 140.388 132.337 142.233 125.471C144.078 118.604 143.507 111.277 140.624 104.81C138.097 99.1435 133.93 94.4433 128.708 91.3687Z" fill="#455A64"/>
<path d="M140.173 117.859C140.148 117.685 140.137 117.509 140.142 117.332C140.117 116.988 140.156 116.478 140.083 115.827C139.953 113.986 139.61 112.168 139.062 110.413C138.689 109.201 138.238 108.016 137.713 106.867C137.098 105.554 136.394 104.289 135.607 103.08C134.743 101.74 133.775 100.476 132.713 99.3001C131.585 98.0273 130.348 96.8647 129.016 95.827C127.682 94.7949 126.254 93.902 124.752 93.161C123.343 92.4911 121.883 91.9467 120.386 91.5337C117.841 90.8519 115.212 90.5742 112.587 90.7101C110.817 90.7983 109.06 91.0822 107.347 91.557C106.733 91.7005 106.279 91.8909 105.958 91.9777C105.798 92.0372 105.634 92.0822 105.467 92.1122C105.618 92.0314 105.774 91.9645 105.936 91.9123C106.251 91.8041 106.701 91.5925 107.312 91.4281C109.025 90.8996 110.791 90.5772 112.574 90.4673C115.225 90.2951 117.886 90.5514 120.462 91.2269C121.979 91.6362 123.46 92.1811 124.888 92.8556C126.413 93.6024 127.862 94.5057 129.214 95.552C130.561 96.6018 131.812 97.7798 132.95 99.0707C134.02 100.262 134.993 101.544 135.859 102.903C136.648 104.129 137.35 105.413 137.961 106.744C138.481 107.91 138.923 109.112 139.285 110.34C139.819 112.118 140.13 113.959 140.211 115.82C140.236 116.324 140.236 116.829 140.208 117.333C140.211 117.51 140.199 117.686 140.173 117.859Z" fill="white"/>
<path d="M108.03 143.976C108.052 143.897 109.458 144.442 111.831 144.78C112.129 144.818 112.44 144.856 112.762 144.897C113.086 144.935 113.427 144.935 113.778 144.958C114.479 145.017 115.23 144.978 116.019 144.963C119.454 144.789 122.812 143.847 125.866 142.199C126.556 141.8 127.224 141.44 127.802 141.022C128.094 140.819 128.388 140.64 128.65 140.438C128.909 140.234 129.159 140.038 129.399 139.849C131.287 138.315 132.24 137.109 132.297 137.165C132.096 137.463 131.872 137.743 131.626 138.002C131.36 138.327 131.073 138.633 130.767 138.917C130.379 139.314 129.971 139.689 129.544 140.04C129.306 140.236 129.057 140.44 128.799 140.653C128.538 140.863 128.244 141.049 127.952 141.26C127.324 141.701 126.675 142.108 126.007 142.48C122.927 144.183 119.517 145.14 116.033 145.279C115.276 145.308 114.518 145.295 113.763 145.243C113.408 145.214 113.064 145.206 112.737 145.161C112.412 145.112 112.098 145.066 111.797 145.021C111.259 144.941 110.725 144.831 110.199 144.69C109.797 144.604 109.401 144.49 109.014 144.348C108.677 144.253 108.348 144.129 108.03 143.976Z" fill="white"/>
<path d="M129.224 123.428C129.159 123.494 125.143 119.308 120.257 114.079C115.369 108.848 111.46 104.556 111.526 104.49C111.591 104.423 115.605 108.609 120.494 113.839C125.38 119.068 129.289 123.362 129.224 123.428Z" fill="white"/>
<path d="M124.483 131.831C124.376 131.743 124.278 131.644 124.191 131.534L123.401 130.637C122.695 129.82 121.721 128.691 120.529 127.31C118.108 124.497 114.753 120.622 111.004 116.385C107.252 112.147 103.815 108.35 101.32 105.608L98.3692 102.358C98.0436 101.991 97.7806 101.695 97.5756 101.465C97.4776 101.366 97.3902 101.256 97.3148 101.137C97.4269 101.218 97.5303 101.312 97.6231 101.416C97.8395 101.635 98.1173 101.916 98.4612 102.264C99.1846 103.005 100.219 104.089 101.489 105.439C104.027 108.139 107.492 111.912 111.246 116.152C114.998 120.392 118.327 124.294 120.704 127.149C121.893 128.576 122.847 129.738 123.497 130.55C123.802 130.935 124.049 131.246 124.241 131.489C124.333 131.593 124.414 131.708 124.483 131.831Z" fill="white"/>
<g opacity="0.3">
<path d="M99.3672 92.5375L137.188 135.329C137.188 135.329 134.127 139.788 131.323 141.729L92.7041 97.9369C94.5708 95.7072 96.8332 93.8739 99.3672 92.5375Z" fill="white"/>
</g>
<g opacity="0.3">
<path d="M89.4525 102.872L126.65 144.564C126.65 144.564 126.995 144.76 124.433 145.434L88.4017 104.988C88.5941 104.209 88.9533 103.486 89.4525 102.872Z" fill="white"/>
</g>
<path d="M187.37 171.659C179.425 165.015 159.954 148.761 159.064 148.328C157.944 147.783 140.808 141.441 137.525 143.479C134.243 145.516 125.442 157.022 125.442 157.022C125.442 157.022 126.277 164.179 133.954 159.057C139.811 155.15 140.72 154.544 140.822 154.475L140.81 154.483L148.971 156.469C148.971 156.469 139.018 160.799 136.912 163.075C134.807 165.352 131.478 174.069 133.555 176.076C134.794 177.275 136.364 178.037 138.042 178.254C138.042 178.254 133.933 184.333 141.222 188.002C141.222 188.002 142.286 193.111 145.882 195.113C149.477 197.116 156.175 196.408 156.175 196.408C156.591 196.167 156.95 195.831 157.223 195.425C157.497 195.02 157.679 194.555 157.756 194.066C157.833 193.577 157.802 193.076 157.667 192.601C157.532 192.125 157.295 191.688 156.974 191.322C154.667 188.15 150.41 187.711 150.41 187.711L155.686 184.505C158.158 185.491 160.459 186.892 162.497 188.652C165.322 184.925 168.552 181.551 172.124 178.599C177.522 174.524 187.37 171.659 187.37 171.659Z" fill="#FFBF9D"/>
<path d="M153.596 174.359C153.334 174.335 153.07 174.351 152.812 174.407C152.104 174.51 151.407 174.678 150.728 174.911C148.462 175.67 146.424 177.029 144.813 178.854C143.202 180.678 142.073 182.907 141.536 185.322C141.371 186.047 141.268 186.785 141.228 187.528C141.197 187.8 141.203 188.075 141.248 188.345C141.322 188.351 141.337 187.183 141.803 185.393C142.398 183.057 143.53 180.907 145.1 179.128C146.671 177.35 148.633 175.995 150.818 175.182C152.492 174.549 153.608 174.435 153.596 174.359Z" fill="#FF9A6C"/>
<path d="M153.947 165.11C153.667 165.095 153.385 165.115 153.11 165.171C152.783 165.205 152.459 165.261 152.139 165.337C151.711 165.42 151.287 165.524 150.869 165.651C149.775 165.968 148.71 166.386 147.687 166.9C145.172 168.162 142.936 169.956 141.121 172.167C140.383 173.066 139.724 174.032 139.15 175.052C138.926 175.441 138.72 175.841 138.534 176.251C138.381 176.554 138.247 176.866 138.132 177.187C138.01 177.45 137.919 177.728 137.861 178.014C137.933 178.046 138.369 176.887 139.385 175.202C139.983 174.219 140.654 173.286 141.392 172.413C142.304 171.352 143.304 170.378 144.38 169.499C145.516 168.551 146.723 167.699 147.989 166.95C148.942 166.513 149.933 166.171 150.947 165.927C152.771 165.333 153.958 165.189 153.947 165.11Z" fill="#FF9A6C"/>
<path d="M155.437 154.487C155.095 154.303 154.713 154.214 154.328 154.227C153.402 154.179 152.477 154.351 151.624 154.731C150.75 155.069 149.98 155.649 149.399 156.409C149.123 156.688 148.92 157.036 148.809 157.42C149.604 156.41 150.622 155.615 151.777 155.104C152.931 154.594 154.187 154.382 155.437 154.487Z" fill="#FF9A6C"/>
<path d="M246.898 120.833C246.898 120.833 272.045 123.346 280.027 146.102C286.363 164.163 289.806 218.272 288.218 219.375L243.821 217.896C243.237 204.701 239.826 194.528 235.044 187.946L246.898 120.833Z" fill="#455A64"/>
<path d="M244.501 217.896C244.813 218.021 245.106 218.191 245.372 218.401C245.916 218.754 246.68 219.301 247.601 220.009C249.996 221.866 252.255 223.907 254.357 226.115C256.461 228.319 258.426 230.663 260.239 233.132C260.931 234.081 261.474 234.862 261.828 235.418C262.038 235.689 262.209 235.989 262.339 236.31C261.487 235.381 260.687 234.402 259.942 233.379C258.484 231.555 256.429 229.071 253.977 226.51C251.884 224.323 249.678 222.257 247.369 220.322C245.595 218.836 244.453 217.968 244.501 217.896Z" fill="#FF9A6C"/>
<path d="M239.213 162.237C239.359 162.263 238.544 168.039 237.393 175.137C236.241 182.238 235.19 187.971 235.044 187.946C234.897 187.92 235.712 182.145 236.864 175.044C238.015 167.946 239.067 162.212 239.213 162.237Z" fill="#263238"/>
<path d="M183.337 324.502C183.579 324.439 183.826 324.4 184.075 324.386C184.613 324.33 185.318 324.255 186.197 324.163C188.102 323.975 190.754 323.714 194.006 323.394C200.598 322.735 209.696 321.744 219.72 320.426C229.746 319.103 238.795 317.702 245.337 316.631C248.563 316.098 251.194 315.663 253.083 315.351L255.192 315.017C255.436 314.966 255.685 314.939 255.934 314.938C255.699 315.025 255.457 315.089 255.211 315.128L253.119 315.565C251.301 315.937 248.664 316.436 245.399 317.021C238.869 318.193 229.821 319.657 219.787 320.981C209.756 322.3 200.644 323.229 194.04 323.787C190.738 324.068 188.063 324.268 186.214 324.38C185.331 324.429 184.623 324.469 184.083 324.499C183.835 324.525 183.585 324.526 183.337 324.502Z" fill="#263238"/>
<path d="M179.412 317.59C180.017 317.484 180.629 317.426 181.242 317.417C182.509 317.347 184.194 317.254 186.237 317.14L202.714 316.261L219.187 315.266L224.181 314.974C224.791 314.913 225.405 314.901 226.017 314.938C225.418 315.071 224.809 315.155 224.197 315.191C223.022 315.319 221.319 315.48 219.214 315.661C215.004 316.024 209.181 316.453 202.743 316.819C196.307 317.184 190.474 317.418 186.251 317.536C184.14 317.595 182.431 317.628 181.249 317.635C180.636 317.669 180.022 317.654 179.412 317.59Z" fill="#263238"/>
<path d="M108.7 219.678C108.86 219.021 109.132 218.399 109.504 217.842C109.991 217.087 110.652 216.472 111.427 216.053C112.203 215.634 113.066 215.424 113.939 215.444C114.812 215.463 115.667 215.71 116.424 216.163C117.181 216.616 117.817 217.259 118.274 218.035C118.277 217.299 118.513 216.585 118.946 216.003C119.378 215.422 119.983 215.005 120.666 214.818C121.29 214.667 121.941 214.689 122.554 214.881C123.167 215.073 123.722 215.429 124.162 215.914C125.078 216.699 125.712 217.782 125.963 218.989C127.045 216.459 132.606 216.768 133.282 218.667C133.282 218.667 138.067 213.212 140.514 215.895C141.531 217.009 141.095 218.719 140.422 220.431C139.523 222.717 138.931 223.67 137.756 226.188L133.226 226.446C132.844 227.922 132.041 233.926 131.871 235.445C131.771 236.976 131.349 238.466 130.634 239.808C130.27 240.475 129.749 241.034 129.122 241.435C128.494 241.836 127.779 242.066 127.043 242.102C126.309 242.099 125.603 241.8 125.076 241.267C124.549 240.734 124.241 240.008 124.216 239.243C123.953 240.524 123.36 241.705 122.499 242.66C122.065 243.131 121.523 243.479 120.924 243.673C120.325 243.867 119.689 243.899 119.075 243.768C118.467 243.608 117.937 243.223 117.583 242.685C117.229 242.147 117.075 241.493 117.152 240.845C115.537 242.01 113.15 240.975 112.125 239.23C111.1 237.484 111.075 235.315 111.138 233.27C111.354 231.402 111.193 229.507 110.665 227.707C110.525 227.454 110.405 227.189 110.309 226.914C110.257 226.467 110.237 226.017 110.249 225.568C110.193 224.614 110.009 223.674 109.704 222.774C109.635 222.577 109.559 222.382 109.476 222.191C109.256 221.684 108.932 221.254 108.684 220.768C108.625 220.666 108.586 220.553 108.569 220.435C108.571 220.177 108.615 219.921 108.7 219.678Z" fill="#FFBF9D"/>
<path d="M103.605 217.059C103.001 216.99 102.391 217.057 101.815 217.257C101.239 217.456 100.711 217.783 100.267 218.214C99.3096 219.329 99.0884 221.997 99.1975 223.488C100.876 223.818 101.772 223.429 103.45 223.759C103.804 223.828 104.1 223.735 104.393 223.953C105.167 224.525 105.041 226.454 105.353 227.388C105.681 228.176 106.287 228.803 107.045 229.141C107.803 229.478 108.657 229.501 109.431 229.204C110.189 228.864 110.839 228.305 111.302 227.592C111.766 226.88 112.025 226.044 112.047 225.184C112.06 223.451 111.452 221.774 110.342 220.482C109.506 219.459 108.476 218.626 107.317 218.037C106.157 217.448 104.894 217.115 103.605 217.059Z" fill="#FFBF9D"/>
<path d="M132.189 232.942C132.019 232.903 132.709 229.704 133.146 225.723C133.339 224.029 133.4 222.32 133.329 220.615C133.242 219.909 133.199 219.198 133.2 218.486C133.5 219.142 133.672 219.854 133.708 220.58C133.893 222.309 133.884 224.056 133.68 225.783C133.495 227.503 133.205 229.209 132.809 230.89C132.696 231.601 132.487 232.291 132.189 232.942Z" fill="#FF9A6C"/>
<path d="M124.015 239.815C124.083 238.787 124.233 237.767 124.464 236.765C124.791 234.894 125.251 232.313 125.6 229.443C125.91 226.997 126.056 224.532 126.035 222.065C126.009 220.172 125.877 219.002 125.963 218.989C126.249 219.982 126.401 221.012 126.415 222.049C126.548 224.54 126.454 227.04 126.133 229.513C125.825 231.979 125.392 234.427 124.835 236.846C124.657 237.862 124.382 238.856 124.015 239.815Z" fill="#FF9A6C"/>
<path d="M117.1 241.042C117.228 239.9 117.417 238.767 117.666 237.647C118.622 232.208 118.913 226.664 118.53 221.149C118.399 220.007 118.33 218.86 118.321 217.71C118.441 217.996 118.518 218.3 118.548 218.611C118.663 219.197 118.788 220.051 118.908 221.113C119.504 226.662 119.21 232.277 118.038 237.726C117.808 238.767 117.595 239.603 117.419 240.172C117.356 240.478 117.249 240.771 117.1 241.042Z" fill="#FF9A6C"/>
<path d="M107.981 220.013C108.509 220.118 108.999 220.376 109.393 220.756C110.421 221.583 111.213 222.685 111.686 223.945C112.194 225.204 112.3 226.599 111.99 227.925C111.69 228.963 111.065 229.323 111.044 229.258C111.301 228.812 111.495 228.331 111.622 227.828C111.798 226.583 111.648 225.312 111.186 224.149C110.736 222.974 110.041 221.919 109.15 221.06C108.462 220.396 107.94 220.094 107.981 220.013Z" fill="#FF9A6C"/>
<defs>
<linearGradient id="paint0_linear_123_121" x1="252.966" y1="24.7527" x2="252.966" y2="53.1088" gradientUnits="userSpaceOnUse">
<stop stop-color="#DB2542"/>
<stop offset="1" stop-color="#F15B2D"/>
</linearGradient>
<linearGradient id="paint1_linear_123_121" x1="253.077" y1="54.4854" x2="253.077" y2="62.1022" gradientUnits="userSpaceOnUse">
<stop stop-color="#DB2542"/>
<stop offset="1" stop-color="#F15B2D"/>
</linearGradient>
</defs>
</svg>
