<svg width="68" height="68" viewBox="0 0 68 68" fill="none" xmlns="http://www.w3.org/2000/svg">
<path d="M59.5 34V17C59.5 13.8833 56.95 11.3333 53.8333 11.3333H51V8.5C51 6.94166 49.725 5.66666 48.1667 5.66666C46.6083 5.66666 45.3333 6.94166 45.3333 8.5V11.3333H22.6667V8.5C22.6667 6.94166 21.3917 5.66666 19.8333 5.66666C18.275 5.66666 17 6.94166 17 8.5V11.3333H14.1667C11.05 11.3333 8.5 13.8833 8.5 17V56.6667C8.5 59.7833 11.05 62.3333 14.1667 62.3333H34V56.6667H14.1667V28.3333H53.8333V34H59.5ZM42.8683 56.6667C41.31 56.6667 40.29 58.2533 40.9417 59.67C42.0597 62.1528 43.8711 64.2598 46.1581 65.7376C48.4452 67.2154 51.1104 68.001 53.8333 68C61.6533 68 68 61.6533 68 53.8333C68 46.0133 61.6533 39.6667 53.8333 39.6667C49.98 39.6667 46.4667 41.225 43.9167 43.7183V41.7917C43.9167 40.63 42.9533 39.6667 41.7917 39.6667C40.63 39.6667 39.6667 40.63 39.6667 41.7917V48.1667C39.6667 49.725 40.9417 51 42.5 51H48.875C50.0367 51 51 50.0367 51 48.875C51 47.7133 50.0367 46.75 48.875 46.75H46.8917C48.6767 44.9933 51.1417 43.9167 53.8333 43.9167C59.3017 43.9167 63.75 48.365 63.75 53.8333C63.75 59.3017 59.3017 63.75 53.8333 63.75C49.81 63.75 46.3533 61.3417 44.795 57.9133C44.6283 57.5418 44.3577 57.2265 44.0159 57.0053C43.674 56.7841 43.2755 56.6665 42.8683 56.6667Z" fill="url(#paint0_linear_134_59)"/>
<defs>
<linearGradient id="paint0_linear_134_59" x1="38.25" y1="5.66666" x2="38.25" y2="68" gradientUnits="userSpaceOnUse">
<stop stop-color="#DB2542"/>
<stop offset="1" stop-color="#F15B2D"/>
</linearGradient>
</defs>
</svg>
