<svg width="69" height="69" viewBox="0 0 69 69" fill="none" xmlns="http://www.w3.org/2000/svg">
<path d="M17.8661 4.92856C15.742 4.92856 13.7049 5.77235 12.2029 7.27432C10.7009 8.77628 9.85715 10.8134 9.85715 12.9375V56.0625C9.85715 58.1866 10.7009 60.2237 12.2029 61.7257C13.7049 63.2276 15.742 64.0714 17.8661 64.0714H41.4444L36.1289 58.756C35.614 58.2411 35.2056 57.6298 34.927 56.9571C34.6483 56.2844 34.5049 55.5634 34.5049 54.8353C34.5049 54.1071 34.6483 53.3861 34.927 52.7134C35.2056 52.0407 35.614 51.4295 36.1289 50.9146C36.6438 50.3997 37.255 49.9913 37.9277 49.7127C38.6004 49.434 39.3214 49.2906 40.0496 49.2906C40.7777 49.2906 41.4987 49.434 42.1714 49.7127C42.8441 49.9913 43.4554 50.3997 43.9703 50.9146L47.4375 54.3818L58.3025 43.5168C58.5638 43.2556 58.8447 43.0239 59.1429 42.8268V12.9375C59.1429 10.8134 58.2991 8.77628 56.7971 7.27432C55.2951 5.77235 53.258 4.92856 51.1339 4.92856H17.8661ZM25.875 21.5625C25.875 22.3794 25.5505 23.1629 24.9728 23.7406C24.3951 24.3183 23.6116 24.6428 22.7946 24.6428C21.9777 24.6428 21.1942 24.3183 20.6165 23.7406C20.0388 23.1629 19.7143 22.3794 19.7143 21.5625C19.7143 20.7455 20.0388 19.962 20.6165 19.3843C21.1942 18.8067 21.9777 18.4821 22.7946 18.4821C23.6116 18.4821 24.3951 18.8067 24.9728 19.3843C25.5505 19.962 25.875 20.7455 25.875 21.5625ZM22.7946 37.5803C21.9777 37.5803 21.1942 37.2558 20.6165 36.6781C20.0388 36.1004 19.7143 35.3169 19.7143 34.5C19.7143 33.683 20.0388 32.8995 20.6165 32.3218C21.1942 31.7442 21.9777 31.4196 22.7946 31.4196C23.6116 31.4196 24.3951 31.7442 24.9728 32.3218C25.5505 32.8995 25.875 33.683 25.875 34.5C25.875 35.3169 25.5505 36.1004 24.9728 36.6781C24.3951 37.2558 23.6116 37.5803 22.7946 37.5803ZM22.7946 50.5178C21.9777 50.5178 21.1942 50.1933 20.6165 49.6156C20.0388 49.0379 19.7143 48.2544 19.7143 47.4375C19.7143 46.6205 20.0388 45.837 20.6165 45.2593C21.1942 44.6817 21.9777 44.3571 22.7946 44.3571C23.6116 44.3571 24.3951 44.6817 24.9728 45.2593C25.5505 45.837 25.875 46.6205 25.875 47.4375C25.875 48.2544 25.5505 49.0379 24.9728 49.6156C24.3951 50.1933 23.6116 50.5178 22.7946 50.5178ZM31.4196 19.7143H47.4375C47.9277 19.7143 48.3978 19.909 48.7444 20.2556C49.091 20.6022 49.2857 21.0723 49.2857 21.5625C49.2857 22.0527 49.091 22.5228 48.7444 22.8694C48.3978 23.216 47.9277 23.4107 47.4375 23.4107H31.4196C30.9295 23.4107 30.4594 23.216 30.1128 22.8694C29.7662 22.5228 29.5714 22.0527 29.5714 21.5625C29.5714 21.0723 29.7662 20.6022 30.1128 20.2556C30.4594 19.909 30.9295 19.7143 31.4196 19.7143ZM29.5714 34.5C29.5714 34.0098 29.7662 33.5397 30.1128 33.1931C30.4594 32.8465 30.9295 32.6518 31.4196 32.6518H47.4375C47.9277 32.6518 48.3978 32.8465 48.7444 33.1931C49.091 33.5397 49.2857 34.0098 49.2857 34.5C49.2857 34.9902 49.091 35.4603 48.7444 35.8069C48.3978 36.1535 47.9277 36.3482 47.4375 36.3482H31.4196C30.9295 36.3482 30.4594 36.1535 30.1128 35.8069C29.7662 35.4603 29.5714 34.9902 29.5714 34.5ZM31.4196 45.5893H47.4375C47.9277 45.5893 48.3978 45.784 48.7444 46.1306C49.091 46.4772 49.2857 46.9473 49.2857 47.4375C49.2857 47.9277 49.091 48.3978 48.7444 48.7444C48.3978 49.091 47.9277 49.2857 47.4375 49.2857H31.4196C30.9295 49.2857 30.4594 49.091 30.1128 48.7444C29.7662 48.3978 29.5714 47.9277 29.5714 47.4375C29.5714 46.9473 29.7662 46.4772 30.1128 46.1306C30.4594 45.784 30.9295 45.5893 31.4196 45.5893ZM48.7436 63.5293L63.5293 48.7436C63.7109 48.5744 63.8565 48.3703 63.9575 48.1436C64.0586 47.9169 64.1129 47.6721 64.1172 47.424C64.1216 47.1758 64.076 46.9293 63.983 46.6992C63.8901 46.4691 63.7517 46.26 63.5762 46.0845C63.4007 45.909 63.1917 45.7706 62.9615 45.6777C62.7314 45.5847 62.4849 45.5391 62.2367 45.5435C61.9886 45.5478 61.7438 45.6021 61.5171 45.7032C61.2904 45.8042 61.0863 45.9498 60.9171 46.1314L47.4375 59.6111L41.3556 53.5292C41.0053 53.2027 40.5419 53.025 40.0631 53.0334C39.5843 53.0419 39.1274 53.2359 38.7888 53.5745C38.4502 53.9131 38.2562 54.37 38.2478 54.8488C38.2393 55.3276 38.417 55.791 38.7435 56.1413L46.1314 63.5293C46.478 63.8754 46.9477 64.0698 47.4375 64.0698C47.9273 64.0698 48.397 63.8754 48.7436 63.5293Z" fill="url(#paint0_linear_125_314)"/>
<defs>
<linearGradient id="paint0_linear_125_314" x1="36.9873" y1="4.92856" x2="36.9873" y2="64.0714" gradientUnits="userSpaceOnUse">
<stop stop-color="#DB2542"/>
<stop offset="1" stop-color="#F15B2D"/>
</linearGradient>
</defs>
</svg>
