<svg width="69" height="69" viewBox="0 0 69 69" fill="none" xmlns="http://www.w3.org/2000/svg">
<g clip-path="url(#clip0_134_43)">
<path d="M63.25 12.2667L56.1583 5.175C55.5488 4.59382 54.7389 4.2696 53.8967 4.2696C53.0544 4.2696 52.2445 4.59382 51.635 5.175L45.3292 11.5H11.5C10.4833 11.5 9.50831 11.9039 8.78942 12.6228C8.07053 13.3416 7.66666 14.3167 7.66666 15.3333V57.5C7.66666 58.5167 8.07053 59.4917 8.78942 60.2106C9.50831 60.9295 10.4833 61.3333 11.5 61.3333H53.6667C54.6833 61.3333 55.6583 60.9295 56.3772 60.2106C57.0961 59.4917 57.5 58.5167 57.5 57.5V22.54L63.25 16.79C63.8492 16.1899 64.1858 15.3764 64.1858 14.5283C64.1858 13.6802 63.8492 12.8668 63.25 12.2667ZM36.0908 38.5825L28.06 40.365L29.9767 32.4108L48.2808 14.0683L54.4717 20.2592L36.0908 38.5825ZM56.5417 18.0742L50.3508 11.8833L53.8967 8.3375L60.0875 14.5283L56.5417 18.0742Z" fill="url(#paint0_linear_134_43)"/>
</g>
<defs>
<linearGradient id="paint0_linear_134_43" x1="35.9262" y1="4.2696" x2="35.9262" y2="61.3333" gradientUnits="userSpaceOnUse">
<stop stop-color="#DB2542"/>
<stop offset="1" stop-color="#F15B2D"/>
</linearGradient>
<clipPath id="clip0_134_43">
<rect width="69" height="69" fill="white"/>
</clipPath>
</defs>
</svg>
