<svg width="70" height="71" viewBox="0 0 70 71" fill="none" xmlns="http://www.w3.org/2000/svg">
<g filter="url(#filter0_d_134_398)">
<circle cx="35" cy="22.6051" r="16.7999" fill="#F53838"/>
</g>
<path d="M40.25 22.6052C40.25 23.9976 39.6968 25.3329 38.7123 26.3175C37.7277 27.3021 36.3923 27.8552 35 27.8552C33.6076 27.8552 32.2722 27.3021 31.2876 26.3175C30.3031 25.3329 29.75 23.9976 29.75 22.6052C29.75 22.3059 29.7815 22.0137 29.8357 21.7302H28V28.7249C28 29.2114 28.3937 29.6052 28.8802 29.6052H41.1215C41.3546 29.6047 41.5781 29.5118 41.7428 29.3467C41.9075 29.1817 42 28.9581 42 28.7249V21.7302H40.1642C40.2185 22.0137 40.25 22.3059 40.25 22.6052ZM35 26.1052C35.4597 26.1051 35.9149 26.0144 36.3396 25.8384C36.7643 25.6623 37.1502 25.4043 37.4752 25.0792C37.8002 24.754 38.058 24.368 38.2338 23.9432C38.4096 23.5184 38.5001 23.0632 38.5 22.6034C38.4998 22.1437 38.4092 21.6885 38.2331 21.2638C38.0571 20.8391 37.7991 20.4532 37.474 20.1282C37.1488 19.8032 36.7628 19.5454 36.338 19.3696C35.9132 19.1938 35.4579 19.1033 34.9982 19.1034C34.0697 19.1037 33.1793 19.4727 32.523 20.1294C31.8666 20.7861 31.498 21.6767 31.4982 22.6052C31.4984 23.5337 31.8675 24.424 32.5242 25.0804C33.1809 25.7368 34.0715 26.1054 35 26.1052ZM39.2 18.9302H41.2982C41.4376 18.9302 41.5713 18.8749 41.6701 18.7765C41.7688 18.6781 41.8245 18.5446 41.825 18.4052V16.3069C41.825 16.1672 41.7695 16.0332 41.6707 15.9345C41.5719 15.8357 41.4379 15.7802 41.2982 15.7802H39.2C39.0603 15.7802 38.9263 15.8357 38.8275 15.9345C38.7287 16.0332 38.6732 16.1672 38.6732 16.3069V18.4052C38.675 18.6939 38.9112 18.9302 39.2 18.9302ZM35 5.80518C30.5443 5.80518 26.2712 7.57517 23.1206 10.7258C19.9699 13.8764 18.2 18.1495 18.2 22.6052C18.2 27.0608 19.9699 31.334 23.1206 34.4846C26.2712 37.6352 30.5443 39.4052 35 39.4052C37.2062 39.4052 39.3908 38.9706 41.429 38.1264C43.4673 37.2821 45.3193 36.0446 46.8794 34.4846C48.4394 32.9245 49.6769 31.0725 50.5211 29.0343C51.3654 26.996 51.8 24.8114 51.8 22.6052C51.8 20.399 51.3654 18.2144 50.5211 16.1761C49.6769 14.1378 48.4394 12.2858 46.8794 10.7258C45.3193 9.16576 43.4673 7.92828 41.429 7.084C39.3908 6.23972 37.2062 5.80518 35 5.80518ZM43.75 29.4109C43.75 30.4802 42.875 31.3552 41.8057 31.3552H28.1942C27.125 31.3552 26.25 30.4802 26.25 29.4109V15.7994C26.25 14.7302 27.125 13.8552 28.1942 13.8552H41.8057C42.875 13.8552 43.75 14.7302 43.75 15.7994V29.4109Z" fill="white"/>
<defs>
<filter id="filter0_d_134_398" x="0.200073" y="0.805176" width="69.5999" height="69.5999" filterUnits="userSpaceOnUse" color-interpolation-filters="sRGB">
<feFlood flood-opacity="0" result="BackgroundImageFix"/>
<feColorMatrix in="SourceAlpha" type="matrix" values="0 0 0 0 0 0 0 0 0 0 0 0 0 0 0 0 0 0 127 0" result="hardAlpha"/>
<feOffset dy="13"/>
<feGaussianBlur stdDeviation="9"/>
<feColorMatrix type="matrix" values="0 0 0 0 0.0658854 0 0 0 0 0.0730469 0 0 0 0 0.1375 0 0 0 0.08 0"/>
<feBlend mode="normal" in2="BackgroundImageFix" result="effect1_dropShadow_134_398"/>
<feBlend mode="normal" in="SourceGraphic" in2="effect1_dropShadow_134_398" result="shape"/>
</filter>
</defs>
</svg>
