<svg width="50" height="45" viewBox="0 0 50 45" fill="none" xmlns="http://www.w3.org/2000/svg">
<rect width="49.4123" height="45.0001" fill="#F15B2D"/>
<path d="M21.0771 20.4021V33.7047C21.0771 34.7197 20.7033 35.693 20.038 36.4107C19.3727 37.1283 18.4704 37.5315 17.5295 37.5315C16.5886 37.5315 15.6863 37.1283 15.021 36.4107C14.3557 35.693 13.9819 34.7197 13.9819 33.7047V20.4021H13.9137C13.9144 20.3897 13.9144 20.3781 13.9144 20.3657C13.9144 18.9705 13.4029 17.6319 12.4914 16.642C11.5799 15.6521 10.3425 15.0912 9.0491 15.0818V15.0803C9.03761 15.0811 9.0268 15.0811 9.01531 15.0811C8.07566 15.0811 7.17439 14.6789 6.50929 13.9629C5.84419 13.2469 5.4696 12.2755 5.46772 11.2619C5.46584 10.2483 5.83683 9.27531 6.49927 8.55643C7.16171 7.83756 8.06148 7.43154 9.00112 7.42749H9.0491C10.6287 7.42733 12.1928 7.76281 13.6522 8.41479C15.1116 9.06677 16.4376 10.0225 17.5545 11.2273C18.6715 12.4321 19.5574 13.8625 20.1618 15.4367C20.7663 17.011 21.0773 18.6982 21.0771 20.4021Z" fill="white"/>
<path d="M29.1488 7.85391C26.7906 8.7408 24.7467 10.3972 23.3004 12.5933C21.8541 14.7895 21.0771 17.4166 21.0772 20.1105V20.4021C21.0792 18.7002 20.7699 17.0145 20.1669 15.4417C19.564 13.869 18.6792 12.44 17.5634 11.2368C19.0522 9.63033 20.9053 8.47268 22.9379 7.87915C24.9706 7.28562 27.112 7.27691 29.1488 7.85391Z" fill="white"/>
<path d="M38.0718 20.4023V33.705C38.0718 34.7199 37.698 35.6932 37.0327 36.4109C36.3674 37.1286 35.465 37.5317 34.5242 37.5317C33.5833 37.5317 32.6809 37.1286 32.0156 36.4109C31.3503 35.6932 30.9766 34.7199 30.9766 33.705V20.4023C30.9766 17.4634 28.7527 15.0813 26.01 15.0813C23.3097 15.0813 21.1129 17.3897 21.0447 20.2653C21.044 20.2135 21.0433 20.1625 21.0433 20.1108C21.0433 17.4169 21.8203 14.7897 23.2666 12.5935C24.7129 10.3974 26.7568 8.74101 29.1149 7.85413C31.683 8.58494 33.9545 10.2124 35.5749 12.4824C37.1952 14.7525 38.0732 17.5374 38.0718 20.4023Z" fill="white"/>
<path d="M17.4214 38.5065C19.9606 38.5065 22.019 36.2861 22.019 33.547C22.019 30.808 19.9606 28.5876 17.4214 28.5876C14.8823 28.5876 12.8239 30.808 12.8239 33.547C12.8239 36.2861 14.8823 38.5065 17.4214 38.5065Z" fill="#F15B2D"/>
<path d="M17.3857 37.3626C19.345 37.3626 20.9333 35.6492 20.9333 33.5358C20.9333 31.4223 19.345 29.709 17.3857 29.709C15.4264 29.709 13.8381 31.4223 13.8381 33.5358C13.8381 35.6492 15.4264 37.3626 17.3857 37.3626Z" fill="white"/>
</svg>
