<svg width="71" height="71" viewBox="0 0 71 71" fill="none" xmlns="http://www.w3.org/2000/svg">
<g filter="url(#filter0_d_134_395)">
<circle cx="35.4" cy="22.6051" r="16.7999" fill="#F53838"/>
</g>
<path d="M35.4 5.80518C26.1215 5.80518 18.6 13.3267 18.6 22.6052C18.6 31.8837 26.1215 39.4052 35.4 39.4052C44.6785 39.4052 52.2 31.8837 52.2 22.6052C52.2 13.3267 44.6785 5.80518 35.4 5.80518ZM42.2337 19.5672C42.2407 19.7107 42.2425 19.8542 42.2425 19.9942C42.2425 24.3692 38.9157 29.4109 32.8292 29.4109C31.0307 29.4139 29.2697 28.8974 27.7577 27.9234C28.015 27.9549 28.2792 27.9672 28.547 27.9672C30.0975 27.9672 31.5237 27.4404 32.656 26.5514C31.966 26.5379 31.2974 26.3094 30.7434 25.8978C30.1894 25.4863 29.7777 24.9121 29.5655 24.2554C30.061 24.3497 30.5715 24.3299 31.0582 24.1977C30.3093 24.0462 29.6358 23.6404 29.152 23.0491C28.6681 22.4577 28.4037 21.7173 28.4035 20.9532V20.9129C28.8497 21.1597 29.3607 21.3102 29.9032 21.3277C29.2011 20.8603 28.7041 20.1424 28.5138 19.3207C28.3235 18.499 28.4543 17.6356 28.8795 16.9072C29.7106 17.9292 30.7472 18.7652 31.922 19.3612C33.0968 19.9572 34.3836 20.2998 35.6992 20.3669C35.532 19.657 35.604 18.9116 35.904 18.2468C36.204 17.582 36.7153 17.0349 37.3584 16.6906C38.0014 16.3464 38.7402 16.2242 39.4598 16.3431C40.1794 16.462 40.8396 16.8153 41.3377 17.3482C42.0783 17.2017 42.7884 16.93 43.4377 16.5449C43.1909 17.3117 42.6742 17.9627 41.9835 18.3772C42.6395 18.2982 43.28 18.1218 43.884 17.8539C43.4403 18.5187 42.8815 19.0989 42.2337 19.5672Z" fill="white"/>
<defs>
<filter id="filter0_d_134_395" x="0.600098" y="0.805176" width="69.5999" height="69.5999" filterUnits="userSpaceOnUse" color-interpolation-filters="sRGB">
<feFlood flood-opacity="0" result="BackgroundImageFix"/>
<feColorMatrix in="SourceAlpha" type="matrix" values="0 0 0 0 0 0 0 0 0 0 0 0 0 0 0 0 0 0 127 0" result="hardAlpha"/>
<feOffset dy="13"/>
<feGaussianBlur stdDeviation="9"/>
<feColorMatrix type="matrix" values="0 0 0 0 0.0658854 0 0 0 0 0.0730469 0 0 0 0 0.1375 0 0 0 0.08 0"/>
<feBlend mode="normal" in2="BackgroundImageFix" result="effect1_dropShadow_134_395"/>
<feBlend mode="normal" in="SourceGraphic" in2="effect1_dropShadow_134_395" result="shape"/>
</filter>
</defs>
</svg>
